<svg width="200" height="200" viewBox="0 0 200 200" fill="none" xmlns="http://www.w3.org/2000/svg">
<path d="M166.806 170.146H59.9165C54.3821 170.146 49.8958 165.66 49.8958 160.126V13.1525C49.8958 7.61816 54.3821 3.13184 59.9165 3.13184H166.806C172.34 3.13184 176.827 7.61816 176.827 13.1525V160.126C176.827 165.66 172.34 170.146 166.806 170.146Z" fill="#C7CFE2"/>
<path d="M176.827 103.34H49.8958V13.1525C49.8958 7.61816 54.3821 3.13184 59.9165 3.13184H166.806C172.34 3.13184 176.827 7.61816 176.827 13.1525V103.34Z" fill="#00C3FF"/>
<path d="M153.444 183.508H46.5554C41.021 183.508 36.5347 179.021 36.5347 173.487V26.5139C36.5347 20.9795 41.021 16.4932 46.5554 16.4932H153.445C158.979 16.4932 163.466 20.9795 163.466 26.5139V173.487C163.466 179.021 158.979 183.508 153.444 183.508Z" fill="#D5DCED"/>
<path d="M163.466 116.702H36.5344V26.5139C36.5344 20.9795 41.0208 16.4932 46.5551 16.4932H153.445C158.979 16.4932 163.465 20.9795 163.465 26.5139L163.466 116.702Z" fill="#7DF5A5"/>
<path d="M140.083 196.868H33.194C27.6597 196.868 23.1733 192.382 23.1733 186.847V39.8742C23.1733 34.3398 27.6597 29.8535 33.194 29.8535H140.083C145.618 29.8535 150.104 34.3398 150.104 39.8742V186.847C150.104 192.382 145.618 196.868 140.083 196.868Z" fill="#E4EAF8"/>
<path d="M150.104 130.062H23.1733V39.8742C23.1733 34.3398 27.6597 29.8535 33.194 29.8535H140.083C145.618 29.8535 150.104 34.3398 150.104 39.8742V130.062Z" fill="#FFC850"/>
<path d="M166.806 0H59.9165C52.6641 0 46.7641 5.90039 46.7641 13.1523V13.3609H46.5555C39.3032 13.3609 33.4032 19.2613 33.4032 26.5133V26.7219H33.1946C25.9422 26.7219 20.0422 32.6223 20.0422 39.8742V186.848C20.0422 194.1 25.9426 200 33.1946 200H140.084C147.336 200 153.236 194.1 153.236 186.848V186.639H153.445C160.697 186.639 166.597 180.739 166.597 173.487V173.278H166.806C174.058 173.278 179.958 167.378 179.958 160.126V13.1523C179.958 5.90039 174.058 0 166.806 0ZM53.027 13.1523C53.027 9.35351 56.1176 6.26289 59.9165 6.26289H166.806C170.605 6.26289 173.695 9.35351 173.695 13.1523V100.209H166.597V26.5137C166.597 19.2613 160.697 13.3613 153.445 13.3613H53.027V13.1523ZM39.6661 26.5137C39.6661 22.7148 42.7567 19.6242 46.5555 19.6242H153.445C157.244 19.6242 160.334 22.7148 160.334 26.5137V113.57H153.236V39.8746C153.236 32.6223 147.336 26.7223 140.084 26.7223H39.6661V26.5137ZM33.1942 32.9855H140.084C143.882 32.9855 146.973 36.0762 146.973 39.875V126.931H26.3047V39.8746C26.3047 36.0762 29.3954 32.9855 33.1942 32.9855ZM146.973 186.848C146.973 190.646 143.882 193.737 140.084 193.737H33.1942C29.3954 193.737 26.3047 190.646 26.3047 186.848V133.194H146.973L146.973 186.848ZM160.334 173.486C160.334 177.285 157.243 180.376 153.445 180.376H153.236V119.833H160.334V173.486ZM166.806 167.014H166.597V106.471H173.695V160.125C173.695 163.924 170.605 167.014 166.806 167.014Z" fill="black"/>
<path d="M130.063 146.973H43.2149C41.4856 146.973 40.0833 148.375 40.0833 150.104C40.0833 151.834 41.4852 153.236 43.2149 153.236H130.063C131.792 153.236 133.194 151.834 133.194 150.104C133.194 148.375 131.792 146.973 130.063 146.973Z" fill="black"/>
<path d="M96.6598 173.695H43.2149C41.4856 173.695 40.0833 175.097 40.0833 176.827C40.0833 178.556 41.4852 179.959 43.2149 179.959H96.6594C98.3887 179.959 99.7911 178.557 99.7911 176.827C99.7915 175.097 98.3891 173.695 96.6598 173.695Z" fill="black"/>
<path d="M43.2149 166.597H63.2555C64.9848 166.597 66.3872 165.195 66.3872 163.466C66.3872 161.736 64.9852 160.334 63.2555 160.334H43.2149C41.4856 160.334 40.0833 161.736 40.0833 163.466C40.0836 165.195 41.4856 166.597 43.2149 166.597Z" fill="black"/>
<path d="M130.062 160.334H76.618C74.8887 160.334 73.4863 161.736 73.4863 163.466C73.4863 165.195 74.8883 166.597 76.618 166.597H130.062C131.792 166.597 133.194 165.195 133.194 163.466C133.194 161.736 131.792 160.334 130.062 160.334Z" fill="black"/>
<path d="M34.7841 65.9091L41.8153 88.0114H42.0852L49.1307 65.9091H55.9489L45.9205 95H37.9943L27.9517 65.9091H34.7841ZM84.5426 80.4545C84.5426 83.6269 83.9413 86.3258 82.7386 88.5511C81.5455 90.7765 79.9167 92.4763 77.8523 93.6506C75.7973 94.8153 73.4867 95.3977 70.9205 95.3977C68.3352 95.3977 66.0152 94.8106 63.9602 93.6364C61.9053 92.4621 60.2813 90.7623 59.0881 88.5369C57.8949 86.3116 57.2983 83.6174 57.2983 80.4545C57.2983 77.2822 57.8949 74.5833 59.0881 72.358C60.2813 70.1326 61.9053 68.4375 63.9602 67.2727C66.0152 66.0985 68.3352 65.5114 70.9205 65.5114C73.4867 65.5114 75.7973 66.0985 77.8523 67.2727C79.9167 68.4375 81.5455 70.1326 82.7386 72.358C83.9413 74.5833 84.5426 77.2822 84.5426 80.4545ZM78.3068 80.4545C78.3068 78.3996 77.9991 76.6667 77.3835 75.2557C76.7775 73.8447 75.9205 72.7746 74.8125 72.0455C73.7045 71.3163 72.4072 70.9517 70.9205 70.9517C69.4337 70.9517 68.1364 71.3163 67.0284 72.0455C65.9205 72.7746 65.0587 73.8447 64.4432 75.2557C63.8371 76.6667 63.5341 78.3996 63.5341 80.4545C63.5341 82.5095 63.8371 84.2424 64.4432 85.6534C65.0587 87.0644 65.9205 88.1345 67.0284 88.8636C68.1364 89.5928 69.4337 89.9574 70.9205 89.9574C72.4072 89.9574 73.7045 89.5928 74.8125 88.8636C75.9205 88.1345 76.7775 87.0644 77.3835 85.6534C77.9991 84.2424 78.3068 82.5095 78.3068 80.4545ZM114.766 76.0938H108.545C108.431 75.2888 108.199 74.5739 107.849 73.9489C107.498 73.3144 107.049 72.7746 106.499 72.3295C105.95 71.8845 105.316 71.5436 104.596 71.3068C103.886 71.0701 103.114 70.9517 102.281 70.9517C100.775 70.9517 99.4633 71.3258 98.3459 72.0739C97.2285 72.8125 96.362 73.892 95.7464 75.3125C95.1309 76.7235 94.8232 78.4375 94.8232 80.4545C94.8232 82.5284 95.1309 84.2708 95.7464 85.6818C96.3714 87.0928 97.2427 88.1581 98.3601 88.8778C99.4775 89.5975 100.77 89.9574 102.238 89.9574C103.062 89.9574 103.824 89.8485 104.525 89.6307C105.235 89.4129 105.865 89.0956 106.414 88.679C106.963 88.2528 107.418 87.7367 107.778 87.1307C108.147 86.5246 108.403 85.8333 108.545 85.0568L114.766 85.0852C114.605 86.4205 114.203 87.7083 113.559 88.9489C112.924 90.1799 112.067 91.2831 110.988 92.2585C109.918 93.2244 108.639 93.9915 107.153 94.5597C105.675 95.1184 104.004 95.3977 102.138 95.3977C99.5438 95.3977 97.2237 94.8106 95.1783 93.6364C93.1423 92.4621 91.5324 90.7623 90.3487 88.5369C89.1745 86.3116 88.5874 83.6174 88.5874 80.4545C88.5874 77.2822 89.1839 74.5833 90.3771 72.358C91.5703 70.1326 93.1896 68.4375 95.2351 67.2727C97.2805 66.0985 99.5817 65.5114 102.138 65.5114C103.824 65.5114 105.387 65.7481 106.826 66.2216C108.275 66.6951 109.558 67.3864 110.675 68.2955C111.793 69.1951 112.702 70.2983 113.403 71.6051C114.113 72.9119 114.567 74.4081 114.766 76.0938ZM123.644 95H117.053L127.096 65.9091H135.022L145.05 95H138.46L131.173 72.5568H130.945L123.644 95ZM123.232 83.5653H138.8V88.3665H123.232V83.5653Z" fill="black"/>
</svg>
